<?xml version="1.0" standalone="no"?>
<!DOCTYPE svg PUBLIC "-//W3C//DTD SVG 1.1//EN" "http://www.w3.org/Graphics/SVG/1.1/DTD/svg11.dtd">
<svg width="693px" height="682px" version="1.1" xmlns="http://www.w3.org/2000/svg"><defs><marker id="Triangle-black" viewBox="0 0 10 10" refX="10" refY="5" markerUnits="strokeWidth" markerWidth="15" markerHeight="9" orient="auto"><path d="M 0 0 L 10 5 L 0 10 z" fill="gray" stroke="gray"></path></marker><marker id="Triangle-white" viewBox="0 0 10 10" refX="10" refY="5" markerUnits="strokeWidth" markerWidth="15" markerHeight="9" orient="auto"><path d="M 0 0 L 10 5 L 0 10 z" fill="white" stroke="gray"></path></marker><polygon id="undevelopd-master" fill="none" stroke="#333" stroke-width="1.5" points="0 -20 -20 0 0 20 20 0" class="assurenote-default"></polygon><rect id="goal-master" width="1" height="1" class="assurenote-default"></rect><polygon id="strategy-master" points="0.08,0 1,0 0.92,1 0,1" class="assurenote-default"></polygon><ellipse id="evidence-master" cx="1" cy="1" rx="0.5" ry="0.5" class="assurenote-default"></ellipse></defs><g transform="translate(151 10) scale(1)"><g transform="matrix(1 0 0 1 0 0)" class="assurenote-default " fill="none" stroke="#000000"><rect width="250" height="99"></rect></g><text x="10" y="5"><tspan x="10" dy="28" font-size="18px" font-weight="bold" font-family="Arial, Meiryo">G1</tspan><tspan x="10" dy="29" font-size="14px" font-family="Arial, Meiryo">ゴール: ある性質が成り立つという</tspan><tspan x="10" dy="20" font-size="14px" font-family="Arial, Meiryo">主張</tspan></text><g transform="matrix(1 0 0 1 282 5)" fill="none" stroke="#000000"><rect class="assurenote-default " rx="10" ry="10" width="250" height="89"></rect></g><path marker-end="url(#Triangle-white)" fill="none" stroke="gray" d="M 250 49.5 C 266 49.5 266 49.5 282 49.5"></path><text x="292" y="15"><tspan x="292" dy="28" font-size="18px" font-weight="bold" font-family="Arial, Meiryo">C1.1</tspan><tspan x="292" dy="29" font-size="14px" font-family="Arial, Meiryo">前提: 主張が成り立つ状況</tspan></text><g transform="matrix(1 0 0 1 0 163)" fill="none" stroke="#000000"><polygon class="assurenote-default " points="20,0 250,0 230,79 0,79"></polygon></g><path marker-end="url(#Triangle-black)" fill="none" stroke="gray" d="M 125 99 C 125 131 125 131 125 163"></path><text x="20" y="168"><tspan x="20" dy="28" font-size="18px" font-weight="bold" font-family="Arial, Meiryo">S1.2</tspan><tspan x="20" dy="29" font-size="14px" font-family="Arial, Meiryo">戦略: 主張を分解する指標</tspan></text><g transform="matrix(1 0 0 1 -141 306)" class="assurenote-default " fill="none" stroke="#000000"><rect width="250" height="79"></rect></g><path marker-end="url(#Triangle-black)" fill="none" stroke="gray" d="M 125 242 C 110.9 306 -1.9 242 -16 306"></path><text x="-131" y="311"><tspan x="-131" dy="28" font-size="18px" font-weight="bold" font-family="Arial, Meiryo">G2</tspan><tspan x="-131" dy="29" font-size="14px" font-family="Arial, Meiryo">サブゴール: 分解された主張</tspan></text><g transform="matrix(1 0 0 1 -141 449)" fill="none" stroke="#000000"><ellipse class="assurenote-default " cx="125" cy="74.5" rx="125" ry="74.5"></ellipse></g><path marker-end="url(#Triangle-black)" fill="none" stroke="gray" d="M -16 385 C -16 417 -16 417 -16 449"></path><text x="-111" y="479"><tspan x="-111" dy="28" font-size="18px" font-weight="bold" font-family="Arial, Meiryo">E2.1</tspan><tspan x="-111" dy="29" font-size="14px" font-family="Arial, Meiryo">証拠: サブゴールの成立を支持</tspan><tspan x="-111" dy="20" font-size="14px" font-family="Arial, Meiryo">する事実</tspan></text><g transform="matrix(1 0 0 1 141 479)" fill="none" stroke="#000000"><rect class="assurenote-default " rx="10" ry="10" width="250" height="89"></rect></g><path marker-end="url(#Triangle-white)" fill="none" stroke="gray" d="M 109 523.5 C 125 523.5 125 523.5 141 523.5"></path><text x="151" y="489"><tspan x="151" dy="28" font-size="18px" font-weight="bold" font-family="Arial, Meiryo">C2.2</tspan><tspan x="151" dy="29" font-size="14px" font-family="Arial, Meiryo">反証: 証拠に対する反例</tspan></text><g transform="matrix(1 0 0 1 121 306)" class="assurenote-default " fill="none" stroke="#000000"><rect width="250" height="79"></rect><polygon points="0 -20 -20 0 0 20 20 0" transform="translate(125,99)" y="99px"></polygon></g><path marker-end="url(#Triangle-black)" fill="none" stroke="gray" d="M 125 242 C 137.1 306 233.9 242 246 306"></path><text x="131" y="311"><tspan x="131" dy="28" font-size="18px" font-weight="bold" font-family="Arial, Meiryo">G3</tspan><tspan x="131" dy="29" font-size="14px" font-family="Arial, Meiryo">未達成なサブゴール</tspan></text></g></svg>